<?xml version="1.0" encoding="UTF-8" standalone="no"?>
<!-- Created with Inkscape (http://www.inkscape.org/) -->

<svg
   xmlns:dc="http://purl.org/dc/elements/1.1/"
   xmlns:cc="http://creativecommons.org/ns#"
   xmlns:rdf="http://www.w3.org/1999/02/22-rdf-syntax-ns#"
   xmlns:svg="http://www.w3.org/2000/svg"
   xmlns="http://www.w3.org/2000/svg"
   xmlns:sodipodi="http://sodipodi.sourceforge.net/DTD/sodipodi-0.dtd"
   xmlns:inkscape="http://www.inkscape.org/namespaces/inkscape"
   width="128"
   height="128"
   viewBox="0 0 128 128"
   id="svg2"
   version="1.1"
   inkscape:version="0.91 r13725"
   sodipodi:docname="blizzard.svg">
  <defs
     id="defs4" />
  <sodipodi:namedview
     id="base"
     pagecolor="#ffffff"
     bordercolor="#666666"
     borderopacity="1.0"
     inkscape:pageopacity="0.0"
     inkscape:pageshadow="2"
     inkscape:zoom="0.98994949"
     inkscape:cx="93.122219"
     inkscape:cy="302.45642"
     inkscape:document-units="px"
     inkscape:current-layer="layer2"
     showgrid="false"
     showguides="true"
     inkscape:guide-bbox="true"
     units="px"
     inkscape:window-width="1920"
     inkscape:window-height="1137"
     inkscape:window-x="1912"
     inkscape:window-y="-8"
     inkscape:window-maximized="1" />
  <metadata
     id="metadata7">
    <rdf:RDF>
      <cc:Work
         rdf:about="">
        <dc:format>image/svg+xml</dc:format>
        <dc:type
           rdf:resource="http://purl.org/dc/dcmitype/StillImage" />
        <dc:title></dc:title>
      </cc:Work>
    </rdf:RDF>
  </metadata>
  <g
     inkscape:groupmode="layer"
     id="layer2"
     inkscape:label="Blizzard"
     transform="translate(0,-924.3622)">
    <g
       id="g4152"
       transform="matrix(0.82299958,0,0,0.82299958,177.71429,480.57649)" />
    <path
       inkscape:connector-curvature="0"
       id="path17377"
       style="fill:#705c5c;fill-opacity:1;fill-rule:nonzero;stroke:none"
       d="m 58.16386,1016.1501 c -0.0883,-0.1737 -0.15839,-0.3199 -0.20407,-0.4265 -0.0244,-0.055 -0.0487,-0.1005 -0.0609,-0.1279 0,-0 -0.006,-0.012 -0.006,-0.015 l 0,-5.8848 -0.17362,-0.01 c 0,0 -4.24909,-0.137 -8.36112,-0.137 -1.93722,0 -3.8318,0.027 -5.2573,0.1218 -0.72189,0.043 -1.30671,0.1097 -1.7301,0.1858 -0.21321,0.043 -0.38379,0.091 -0.51476,0.1462 -0.10356,0.052 -0.22845,0.1158 -0.25891,0.262 -0.74321,0.4599 -1.4986,0.6122 -2.24487,0.6122 -1.56561,0 -2.97283,-0.6975 -3.76783,-0.7097 -0.067,0 -0.14011,0.01 -0.20712,0.027 l -0.0304,0 -0.0213,0.021 c -0.70361,0.4599 -0.89855,0.5148 -1.28234,1.1087 -0.53609,0.082 -0.97775,0.1097 -1.37981,0.1097 -0.77976,0 -1.41027,-0.1066 -2.2601,-0.1188 -0.0152,-0.6488 -0.13402,-0.9595 -0.28631,-1.1483 -0.0822,-0.097 -0.16448,-0.1554 -0.18885,-0.1797 -0.0335,-0.04 -0.0244,-0.01 -0.0305,-0.04 0,-0.024 0.006,-0.079 0.0365,-0.1523 0.11575,-0.3534 0.10052,-0.4417 0.39293,-0.6549 l 0.0761,-0.055 0,-3.1373 c 0.13707,-0.1127 0.23454,-0.198 0.38683,-0.2985 l 0.0731,-0.058 0,-2.1413 c 0.18581,-0.1675 0.27718,-0.2193 0.37161,-0.3534 0.10052,-0.1522 0.0883,-0.3045 0.0914,-0.5939 0,-0.055 0.006,-0.1036 0.006,-0.1462 -0.006,-0.1127 -0.006,-0.1858 -0.0152,-0.2589 -0.0152,-0.1188 -0.0914,-0.2071 -0.15838,-0.265 -0.0609,-0.07 -0.14316,-0.1615 -0.27414,-0.3533 0.10966,-0.329 0.16448,-0.6153 0.24672,-0.8042 0.10356,-0.2041 0.1919,-0.3046 0.51172,-0.3624 l 0.14012,-0.03 0.003,-0.1402 c 0,-0 0.0457,-0.96553 0.0457,-1.74834 -0.006,-0.38988 -0.009,-0.72798 -0.0487,-0.91987 l -0.0122,-0.067 -0.0609,-0.0426 c -0.12793,-0.0883 -0.23759,-0.1919 -0.38379,-0.31069 l 0,-3.32923 c 0.13097,-0.12488 0.23453,-0.20103 0.38379,-0.30459 l 0.0731,-0.0548 0.003,-0.0883 c 0,0 0.24977,-3.94146 0.24977,-6.9143 -0.003,-1.48946 -0.0487,-2.69261 -0.265,-3.1556 -0.12183,-0.24367 -0.26499,-0.38378 -0.42033,-0.50257 -0.13098,-0.10356 -0.27718,-0.19494 -0.48735,-0.37465 l 0,-9.82014 c 0.13706,-0.11574 0.23453,-0.20102 0.38987,-0.30154 l 0.0731,-0.0579 0,-2.18089 -0.0731,-0.0518 c -0.79803,-0.57873 -0.8559,-0.89551 -0.8559,-0.93511 l 0.006,-0.0122 0,-0.0274 c 0.0122,-0.34419 0.0579,-0.35637 0.38683,-0.60615 l 0.0731,-0.0548 0,-4.66943 -0.0731,-0.0579 c -0.29241,-0.20712 -0.81631,-0.76758 -1.25188,-1.2732 -0.42644,-0.49649 -0.78891,-0.93815 -0.78891,-0.93815 l -0.0213,-0.0244 -0.0244,-0.0275 c -0.0792,-0.0365 -0.15229,-0.0487 -0.22539,-0.0487 -0.20408,0.009 -0.34115,0.0822 -0.50258,0.0792 -0.20409,-0.003 -0.53,-0.1066 -1.05999,-0.96556 l -0.0548,-0.0792 -3.70387,0 c -0.10052,-0.13706 -0.17971,-0.24367 -0.27413,-0.40816 l -0.0579,-0.0914 -0.82241,0 -0.0304,0.14316 c -0.0518,0.30764 -0.0914,0.40815 -0.13707,0.46907 -0.0396,0.0579 -0.13403,0.13403 -0.28023,0.32592 l -0.12184,0.14925 0.1523,0.10966 c 1.23056,0.89246 1.69963,1.44682 1.90371,1.79101 0.10357,0.17057 0.13403,0.29241 0.17972,0.39597 0.0304,0.10661 0.0975,0.24064 0.23758,0.31678 l 0.0426,0.0183 0.0609,0 c 0.0518,0 0.14925,-0.006 0.28632,-0.006 0.17666,0 0.40815,0.0152 0.59396,0.064 0.1858,0.0457 0.30155,0.13098 0.32591,0.20712 l 0.006,0.009 0.003,0.0122 c 0,0 0.17058,0.30765 0.35029,0.78891 0.1858,0.47821 0.38074,1.1209 0.43556,1.75751 0,0.0122 0.003,0.0244 0.003,0.0365 0.0183,0.4447 -0.5696,1.97378 -0.77367,2.21441 l -0.11575,0.14925 0.1523,0.10661 c 0.16752,0.10965 0.26499,0.19798 0.40815,0.32287 0.0609,0.2589 0.0822,0.71275 0.0822,1.19401 0,0.87419 -0.0731,1.85802 -0.0975,2.12302 -0.34114,0.31373 -0.49344,0.55437 -0.85286,0.81022 l -0.0701,0.0518 0,3.80438 0.0701,0.0487 c 0.15839,0.11269 0.25586,0.19189 0.38379,0.31068 l 0,6.99959 0.0792,0.0579 c 0.13402,0.0822 0.48127,0.5239 0.50563,0.91074 0,0.0213 0.006,0.0487 0.006,0.0731 0.0213,0.44775 -0.40206,1.03562 -0.51476,1.09349 l -0.0761,0.0487 0,5.00448 c -0.12793,0.11575 -0.22845,0.20712 -0.38379,0.31373 l -0.064,0.0335 -0.006,0.0792 c 0,0.009 -0.1188,0.69448 -0.1188,1.71487 0,0.4843 0.0244,1.05085 0.10661,1.6448 -0.064,0.11575 -0.0975,0.18581 -0.12183,0.21322 -0.0213,0.0335 -0.067,0.064 -0.23454,0.14012 l -0.10661,0.0457 0.009,6.34471 0.0701,0.052 c 0.40816,0.2954 0.84982,0.6305 0.84982,1.2305 0,0.1798 0.0213,0.2925 0.0213,0.3564 -0.0122,0.07 0.003,0.043 -0.0396,0.091 -0.0396,0.052 -0.16448,0.134 -0.36552,0.2803 l -0.07,0.058 0,1.6265 c -0.14011,0.1127 -0.23758,0.2102 -0.38684,0.3076 l -0.0792,0.055 0,3.8075 0.0701,0.052 c 0.26195,0.1797 0.39597,0.2863 0.39597,0.4782 0,0.2406 -0.26804,0.402 -0.38684,0.4751 l -0.0792,0.055 0,2.1353 c -1.15746,1.0539 -1.10263,0.8437 -1.62044,1.3463 l -1.36154,0.7401 -0.0213,0.079 c -0.0487,0.3107 -0.0975,0.4082 -0.13098,0.4691 -0.0426,0.058 -0.13707,0.1401 -0.28632,0.3229 l -0.12184,0.1523 0.15534,0.1066 c 0.21018,0.1553 0.29851,0.2619 0.41121,0.4477 l 0.0914,0.1554 0.15839,-0.094 c 0.22844,-0.1523 0.79499,-0.2254 1.41332,-0.2254 0.62442,0 1.30671,0.064 1.83365,0.1218 0.52086,0.064 0.89247,0.134 0.89247,0.134 l 0.14925,0.018 0.0487,-0.137 c 0.10357,-0.3138 0.84373,-0.9686 1.55344,-1.4743 0.60005,-0.4386 1.16964,-0.8041 1.33412,-0.9016 l 1.68137,0 0.003,0 c 0.17971,0.01 1.17878,0.3412 1.33717,0.658 l 0.0548,0.091 0.0975,0 c 0,0 0.7554,-0.01 1.88544,-0.01 3.03681,0 8.83934,0.012 9.75008,0.088 0.13097,0.2071 0.31678,0.6183 1.05084,0.6609 l 0.003,0 4.42272,0 c 0.30459,0.3808 0.56959,0.4996 0.79804,0.4965 0.12488,0 0.21931,-0.018 0.27718,-0.018 0.0944,0 0.19494,0 0.47516,0.4325 l 0.0457,0.091 1.51384,0 c 0.10052,0.1371 0.18885,0.2468 0.28328,0.4051 l 0.0487,0.085 6.4574,0 -0.18275,-0.271 c -0.21931,-0.3382 -0.44776,-0.7676 -0.61833,-1.1057 M 32.62159,962.55997 c 0.064,0.0853 0.18581,0.1523 0.31068,0.16448 0.10662,0.0213 0.24368,0.0244 0.44471,0.0304 0.0426,0.18276 0.17971,0.32592 0.32896,0.40816 0.58483,0.31068 1.45597,0.2985 1.62654,0.93206 l 0.59396,10.05467 0.0731,0.0548 c 0.11879,0.0822 0.23149,0.1127 0.29545,0.15534 0.0701,0.0457 0.0792,0.0487 0.0853,0.10051 0.003,0.0182 0.009,0.0335 0.009,0.0487 -0.0579,0.0335 -0.19495,0.11574 -0.39902,0.28023 l -0.0731,0.0579 0.14925,19.70422 c -0.40816,0.4508 -0.6031,1.34632 -0.60614,1.96464 0,0.43557 0.13097,0.73712 0.24671,0.95338 0.12184,0.23454 0.21627,0.36551 0.21018,0.54218 0,0.21322 0.0213,0.35028 0.0213,0.42948 -0.006,0.0731 0,0.0731 -0.0518,0.13097 -0.0335,0.0548 -0.15839,0.14925 -0.35638,0.29546 l -0.07,0.0518 0,0.0914 0,0.33201 c 0,1.13004 -0.0396,4.89484 -0.39598,5.98524 -0.75234,0.5087 -0.94424,0.6245 -1.13308,0.8499 -0.17667,0.2193 -0.29242,0.469 -0.98385,1.3402 l -0.1127,0.1431 0.1523,0.1066 c 0.14925,0.1097 0.26195,0.2254 0.35029,0.3199 0.0944,0.082 0.12183,0.1736 0.28631,0.2071 0.0274,0.024 0.0944,0.088 0.1919,0.088 l 0.003,0 c 0.24977,-0.037 0.42948,-0.1889 1.08436,-0.8285 0.46602,-0.1889 2.19308,-0.3564 3.56375,-0.3533 0.44776,0 0.85896,0.018 1.18488,0.049 0.31982,0.037 0.5635,0.1035 0.62746,0.1462 l 0.0883,0.058 0.0914,-0.049 c 0.38074,-0.1889 0.60005,-0.2285 0.69752,-0.2285 0.0274,0 0.0426,0 0.0579,0 l 0.0335,0.049 0.0883,0 c 0.12184,0 0.22845,-0.01 0.31982,-0.01 0.1919,0 0.34724,0.012 0.6762,0.1493 l 0.28328,0.1066 -0.22235,-1.6936 -0.064,-0.049 c -1.41637,-1.0112 -2.1413,-1.3341 -2.52509,-1.5869 -0.35638,-0.2467 -0.40816,-0.3564 -0.61529,-1.1849 -0.0975,-0.4142 -0.22844,-0.7615 -0.22844,-1.0569 0.006,-0.1919 0.0548,-0.3564 0.20103,-0.5361 0.11575,-0.1553 0.22845,-0.2071 0.4173,-0.3411 l 0.0731,-0.049 0.25282,-3.50593 -0.0731,-0.0518 c -0.0487,-0.0579 -0.23759,-0.47821 -0.3716,-0.8681 -0.13403,-0.38073 -0.25587,-0.81935 -0.265,-0.90159 l 0,-0.0122 0,-0.13707 c -0.006,-1.34935 -0.45385,-2.11389 -0.44775,-2.65912 0.003,-0.26803 0.0883,-0.50562 0.39902,-0.8224 0.15838,-0.1523 0.24976,-0.22844 0.43252,-0.35333 l 0.067,-0.0457 0.0122,-0.0761 c 0,-0.003 0.0609,-0.45994 0.0609,-1.03258 0,-0.28632 -0.0183,-0.59396 -0.0609,-0.88942 l -0.0152,-0.0883 -0.0701,-0.0396 c -0.0396,-0.0335 -0.0853,-0.31374 -0.0822,-0.59092 -0.009,-0.29546 0.0122,-0.597 -0.0335,-0.7889 -0.11574,-0.56045 -0.14316,-0.93815 -0.14316,-1.19401 0,-0.30155 0.0365,-0.39901 0.0396,-0.53304 -0.003,-0.2589 -0.0853,-0.67011 -0.0853,-1.10567 0,-0.4234 0.0822,-0.84373 0.34419,-1.13005 0.14621,-0.14926 0.24368,-0.21627 0.42948,-0.34419 l 0.0914,-0.067 -0.25586,-1.46205 -0.0609,-0.0365 c -0.0487,-0.0426 -0.11574,-0.38683 -0.15839,-0.69752 -0.0274,-0.16448 -0.0548,-0.32288 -0.0944,-0.45385 -0.0244,-0.0853 -0.0487,-0.17971 -0.12184,-0.25586 0.1462,-1.0143 0.19494,-2.50986 0.19494,-4.14858 0,-3.39014 -0.21017,-7.38642 -0.21017,-8.87284 0.0122,-0.23149 0.0914,-0.27413 0.28023,-0.42339 0.17361,-0.13097 0.41729,-0.37465 0.41729,-0.8224 -0.006,-0.29546 -0.0274,-0.46908 -0.0883,-0.60614 -0.12184,-0.21018 -0.29242,-0.2254 -0.27718,-0.24368 -0.0305,-0.0183 -0.10052,-0.1523 -0.10052,-0.64269 -0.0274,-0.8681 1.19706,-1.90677 2.32101,-2.20222 l 0.13402,-0.0396 0,-0.94728 -0.0426,-0.0487 c -0.23758,-0.2985 -0.38683,-0.43862 -0.56349,-0.72493 l -0.0731,-0.13403 -0.1462,0.0548 c -0.35028,0.13707 -2.17786,0.2254 -4.02674,0.22236 -2.01033,0.003 -4.14249,-0.0914 -4.61156,-0.2254 l -0.13089,-0.0425 -0.067,0.12488 c -0.0548,0.0944 -0.27719,0.38074 -0.44775,0.6031 l -0.11271,0.14925 0.14621,0.10356 c 0.43557,0.32287 0.44775,0.44471 0.58482,0.58787 m 90.37627,20.54491 c -0.38988,0.332 -0.59396,1.10568 -0.79804,1.86107 -0.14925,0.64269 -0.2589,1.25798 -0.29546,1.47729 -0.24367,0.15229 -0.9016,0.7097 -0.9016,1.97681 0,0.0701 0.006,0.14925 0.009,0.22845 -0.0853,0.28937 -0.13098,0.94729 -0.17971,1.86412 -0.13707,2.851 -0.13707,7.91641 -0.13707,8.31238 l 0,0.009 c -0.17972,1.04171 -0.74017,1.63873 -1.25494,3.39623 l -0.009,0.027 0.003,0.027 c 0,0.082 0.006,0.1553 0.006,0.2345 0,2.1383 -1.53819,4.2796 -2.21439,5.1111 l 0.0609,-22.0435 -0.0944,-0.0548 c -0.0244,-0.003 -0.1523,-0.15535 -0.24367,-0.38684 -0.30156,-0.68838 -0.57569,-2.01945 -0.57569,-2.44894 l 0,-0.0335 -0.0183,-0.0304 c 0,0 -0.0944,-0.2254 -0.19798,-0.44776 -0.0518,-0.10965 -0.0944,-0.22235 -0.14925,-0.31372 -0.003,-0.009 -0.003,-0.009 -0.0152,-0.0182 0.0122,-0.10966 0.0122,-0.2315 0.0122,-0.39902 0,-1.87935 -0.19494,-6.90212 -0.19494,-6.90212 l -0.006,-0.0152 -0.12489,-0.58482 0.17972,-1.72707 c 0.27718,-0.0152 0.49953,-0.0213 0.70971,-0.0213 0.66096,0 1.1148,0.067 2.00118,0.067 0.22235,-0.006 0.36551,0.17057 0.62137,0.44776 0.21322,0.22844 0.53304,0.49649 1.04781,0.54218 0.0426,0.57873 0.34114,0.96861 0.6762,1.27321 0.37465,0.34114 0.79194,0.61222 1.08131,1.02647 0.0182,0.0152 0.0822,0.22844 0.1462,0.49041 0.0914,0.40206 0.19799,0.95641 0.33506,1.45291 0.14011,0.43862 0.26804,0.82544 0.52085,1.04171 l 0,4.55978 z m 4.83087,-7.05137 -0.009,-0.0792 -0.0548,-0.0427 c -0.0122,-0.006 -0.0213,-0.0304 -0.0335,-0.0579 -0.07,-0.16753 -0.16143,-0.51781 -0.25586,-0.8285 -0.0518,-0.16752 -0.0914,-0.31373 -0.14316,-0.43556 -0.0335,-0.0914 -0.0487,-0.17058 -0.0975,-0.2315 l 0.13402,-4.76081 -0.0761,-0.0579 c -0.28328,-0.20408 -0.31679,-0.30154 -0.51172,-0.84981 -0.18276,-0.53609 -0.4965,-1.42551 -1.2793,-3.07032 -0.14316,-0.28936 -0.54218,-0.56045 -0.99907,-0.96556 -0.46299,-0.38684 -0.97775,-0.87114 -1.3189,-1.42246 l -0.0518,-0.0883 -2.14434,0 c -0.11271,-0.13707 -0.18885,-0.24063 -0.27719,-0.40816 l -0.0487,-0.0914 -1.97986,0 c -0.10966,-0.13707 -0.1919,-0.24063 -0.28328,-0.40511 l -0.0487,-0.0883 -1.51993,0 c -0.21322,-0.25586 -0.34419,-0.39293 -0.50563,-0.66097 l -0.0548,-0.0914 -1.52297,0 c -0.51779,-0.57568 -1.30974,-0.88941 -1.98899,-1.14832 -0.35333,-0.13402 -0.67315,-0.24977 -0.9016,-0.3716 -0.23758,-0.12489 -0.34724,-0.24673 -0.35637,-0.32897 l -0.0304,-0.14011 -1.55953,0 c -0.10964,-0.14011 -0.1858,-0.25282 -0.27717,-0.41425 l -0.0548,-0.0883 -2.66216,0 0.23455,0.28327 c 0.0518,0.0761 0.31677,0.32592 0.71883,0.71579 1.07827,1.04476 3.03681,2.90888 3.39319,3.24698 l 0,2.58906 c -0.14011,0.10965 -0.23454,0.20408 -0.38988,0.3046 l -0.0761,0.0518 0,3.63382 c -0.13402,0.11575 -0.22845,0.20712 -0.38074,0.31069 l -0.0792,0.0457 0,9.42416 0.0701,0.0457 c 0.0365,0.0731 0.10965,0.45994 0.16143,0.79804 0.0244,0.1858 0.0518,0.36551 0.0853,0.51171 0.0304,0.12184 0.0365,0.21017 0.0914,0.29851 l -0.18276,3.21347 0.0822,0.0518 c 0.13707,0.10052 0.23759,0.17362 0.35028,0.28023 -0.064,0.28327 -0.0761,0.73101 -0.0822,1.27624 0,1.27321 0.11574,2.92716 0.11574,2.93021 -0.006,0.3046 0.1523,0.50867 0.26196,0.64878 0.11879,0.1523 0.19189,0.24064 0.19494,0.45994 l 0,1.37676 c 0,0.12488 0.0731,0.35029 0.18884,0.73712 0.35333,1.11786 1.0874,3.20738 1.88544,4.06634 l -0.84677,8.45551 0.93511,2.1627 0.53913,1.3371 c 0.0365,0.1188 0.16143,0.1889 0.24672,0.1919 0.12488,0.015 0.18276,0.012 0.18276,0.018 l 0.0152,0.015 c 0.009,0.027 0.0213,0.088 0.0213,0.1889 0.0213,0.088 -0.25891,0.3716 -0.68839,0.5787 -0.42034,0.2224 -0.9351,0.4173 -1.26711,0.5574 l -0.16447,0.064 0.067,0.1645 c 0,0 0.13402,0.3564 0.26804,0.8559 0.13708,0.5026 0.27719,1.1453 0.27719,1.6661 0,0.082 0,0.1615 -0.0122,0.2346 -0.11574,1.3554 -0.80412,2.4946 -1.47728,3.1678 l -0.17057,0.1705 0.21017,0.1066 c 0.12793,0.064 0.26804,0.064 0.47516,0.073 0.47517,0 1.20925,-0.079 1.86108,-0.2071 0.31373,-0.064 0.62137,-0.1401 0.84982,-0.2315 0.20407,-0.091 0.38379,-0.1614 0.46603,-0.3411 0.003,-0 0.009,-0.01 0.0244,-0.01 0.0914,-0 0.34115,0.1188 0.58178,0.2589 0.25585,0.1371 0.49344,0.3015 0.76758,0.3076 0.0396,0 0.0853,-0.01 0.13097,-0.021 l 0.0152,-0.01 0.0213,-0.01 c 0.60614,-0.332 1.92504,-0.664 3.07336,-0.9716 0.57873,-0.1645 1.11482,-0.3198 1.51688,-0.4813 0.20103,-0.085 0.3777,-0.1645 0.50258,-0.2619 0.10356,-0.076 0.20408,-0.1737 0.23759,-0.3138 0.20407,-0.2315 0.22844,-0.204 0.36246,-0.2954 0.13707,-0.097 0.24672,-0.2467 0.47517,-0.7311 0.55437,-0.6822 0.57264,-0.929 0.97166,-2.0407 l 0.003,-0.015 0.47821,-2.5708 c 0.35942,-0.8925 0.38684,-1.8002 0.38684,-2.6744 l 0,-0.6853 c 0,-0.8468 0.0396,-1.6448 0.35028,-2.3758 l 0.0122,-0.012 0.003,-0.01 c 0.12793,-0.5178 0.17362,-1.4865 0.17362,-2.6287 0,-2.56773 -0.23149,-5.96396 -0.265,-6.47873 0.0396,-0.0701 0.0548,-0.14316 0.0548,-0.20103 0.0213,-0.24672 -0.0548,-0.58177 0.28022,-1.49251 l 0.006,-0.0244 0.30155,-2.25095 c 0.17666,-0.16752 0.6762,-0.67011 1.07522,-1.58694 0.24062,-0.44775 0.30459,-0.98689 0.30459,-1.5382 0,-0.63356 -0.0853,-1.29453 -0.0853,-1.84584 0,-0.1127 0,-0.22845 0.0122,-0.33201 0.14925,-0.17667 0.24672,-0.42339 0.35333,-0.66706 0.10052,-0.265 0.24368,-0.52391 0.28023,-0.53 l 0.0457,-0.0365 0.0213,-0.0548 c 0.14925,-0.41424 0.17971,-1.28234 0.17971,-2.2875 0,-2.00119 -0.17058,-4.51714 -0.17058,-4.52628 m -25.79307,-0.62747 c -0.15534,0.38074 -0.37465,1.06913 -0.61223,1.74532 -0.24672,0.70057 -0.52086,1.40418 -0.73103,1.66004 -0.19494,0.24977 -0.99298,0.80109 -1.73314,0.93206 -0.14621,0.0304 -0.32897,0.0396 -0.52086,0.0396 -0.21017,0 -0.40815,-0.0122 -0.54523,-0.0275 l 0,-13.64279 0.10661,0 c 0.0822,0 0.17971,0 0.28632,0.009 0.1858,-0.009 0.56655,0.21018 0.96861,0.57264 0.61528,0.55132 1.32499,1.39199 1.8763,2.08952 0.51172,0.64574 0.88637,1.17878 0.93512,1.24884 0.40205,0.72493 0.49343,1.38286 0.49343,1.81843 0,0.34115 -0.0548,0.53608 -0.0518,0.53608 l -0.009,0.0244 0,0.94424 c -0.0975,0.11575 -0.11271,0.24368 -0.17362,0.36247 -0.0152,0.0579 -0.0366,0.1127 -0.0487,0.1523 l -0.1127,-0.0548 -0.0426,0.22539 c 0,0.006 -0.10356,0.52391 -0.10661,1.01431 0,0.11879 0.006,0.23758 0.0213,0.35028 m 8.62307,28.05319 -0.0122,-0.058 c -0.009,-0.4691 -0.44166,-1.4225 -0.62746,-1.721 l -0.0365,-0.061 -0.064,-0.018 c -0.27718,-0.061 -0.42948,-0.1218 -0.47821,-0.1736 0.009,-0.1066 0.0457,-0.4752 0.0944,-0.8468 0.0518,-0.3807 0.14925,-0.81021 0.18885,-0.85589 l 0.0457,-0.064 -0.0122,-0.067 c -0.0335,-0.16448 -0.20408,-1.43159 -0.38379,-2.68652 -0.0883,-0.62442 -0.1858,-1.25189 -0.27109,-1.74229 -0.0944,-0.50562 -0.14316,-0.82849 -0.21931,-0.98993 l -0.0944,-0.16448 -0.15534,0.10356 c -0.10357,0.0609 -0.16753,0.0792 -0.19495,0.0761 -0.0487,0 -0.0883,-0.0244 -0.14925,-0.13097 -0.0853,-0.15839 -0.14925,-0.44776 -0.20103,-0.70057 -0.0152,-0.12793 -0.0396,-0.24672 -0.0609,-0.34724 -0.0335,-0.0792 -0.0183,-0.16143 -0.10965,-0.23149 l 0,-0.003 c -0.0487,-0.0761 -0.0944,-0.42339 -0.12184,-0.85895 -0.0487,-0.65793 -0.0731,-1.54125 -0.10661,-2.30273 -0.0152,-0.38685 -0.0396,-0.73712 -0.0701,-1.01431 -0.0304,-0.28632 -0.0518,-0.48126 -0.13707,-0.62746 l -0.0122,-0.0183 -0.0152,-0.0213 c -0.0426,-0.0152 -0.13707,-0.33505 -0.17057,-0.66096 -0.0487,-0.32592 -0.0731,-0.6427 -0.15839,-0.84373 -0.13402,-0.28023 -0.14621,-0.42948 -0.14621,-0.53304 0,-0.0487 0.003,-0.0944 0.003,-0.15839 0.0183,-0.11574 -0.0822,-0.27414 -0.21931,-0.33505 -0.12793,-0.0762 -0.33201,-0.1523 -0.68534,-0.28937 -0.0244,-0.006 -0.0548,-0.0152 -0.0761,-0.13098 -0.0426,-0.16448 -0.0426,-0.45384 -0.0853,-0.73711 -0.0518,-0.25891 -0.18885,-0.56351 -0.51172,-0.70057 -1.00212,-1.19402 -1.59608,-1.49861 -2.14435,-1.50165 -0.38074,0.003 -0.67315,0.13706 -1.02039,0.13706 -0.0426,0 -0.0822,-0.003 -0.13097,-0.006 0.0701,-0.0609 0.11879,-0.10356 0.16752,-0.14925 0.10965,-0.10966 0.13402,-0.26804 0.13098,-0.47213 0,-0.17057 -0.006,-0.42338 -0.009,-0.83763 2.94847,-0.10965 4.54759,-2.84491 5.41569,-6.24114 l 0.009,-0.0183 0,-0.0244 c 0,0 0.006,-0.52085 0.006,-1.11786 0,-0.27109 0,-0.5635 -0.006,-0.82545 0.0975,-0.15534 0.14316,-0.35942 0.21626,-0.57568 0.0335,-0.12184 0.0731,-0.23454 0.10661,-0.32288 0.0213,-0.0457 0.0305,-0.0853 0.0518,-0.10356 0.006,-0.0122 0.0122,-0.0183 0.0152,-0.0244 l 0.0701,-0.0457 0.006,-0.0914 c 0,-0.006 0.067,-1.0539 0.067,-1.90067 0,-0.45081 -0.009,-0.82545 -0.0914,-1.04476 l -2.36061,-4.97708 -0.10965,0 -0.0183,-0.009 c -0.16752,-0.064 -0.6427,-0.51476 -1.19401,-0.97165 -0.56045,-0.45385 -1.24579,-0.91683 -1.99509,-1.01735 -0.20104,-0.0304 -0.38988,-0.0335 -0.55437,-0.0335 -0.16448,0 -0.30764,0.003 -0.42338,0.003 -0.14621,-0.0457 -0.98384,-0.29546 -1.82148,-0.56655 -0.46298,-0.14011 -0.9351,-0.2985 -1.28539,-0.41425 -0.17971,-0.064 -0.32287,-0.10966 -0.42948,-0.14621 -0.0426,-0.0183 -0.0853,-0.0365 -0.1066,-0.0457 l -0.0274,-0.0487 -2.43981,0 c -0.12183,-0.16449 -0.1858,-0.26195 -0.27718,-0.36247 -0.12793,-0.11879 -0.28327,-0.13402 -0.49649,-0.13402 -0.44167,-0.006 -0.5635,0.0304 -1.17269,0.30764 l -6.6889,0.18885 -0.0244,0.35028 1.68441,0.36551 c 0.0365,0.0365 0.0914,0.0731 0.16752,0.13402 0.36857,0.26196 1.18488,0.82241 1.91895,1.49252 0.73103,0.65792 1.35849,1.45291 1.392,2.08647 l 0.009,0.10356 0.0792,0.0396 c 0.17667,0.10052 0.31373,0.14926 0.45689,0.14926 0.20103,-0.006 0.33506,-0.0883 0.49344,-0.13098 0.18581,-0.0548 0.27719,-0.18885 0.3442,-0.27414 0.0244,-0.0426 0.0548,-0.0761 0.0731,-0.0883 0.11575,0.0244 0.47212,0.10357 0.81327,0.19799 0.20103,0.0548 0.39902,0.11575 0.56045,0.16752 0.0487,0.0152 0.0883,0.0335 0.13098,0.0518 -1.42246,1.96159 -3.5333,3.02158 -4.28869,3.76783 l -0.0457,0.0396 -0.003,0.0609 c -0.0731,0.56045 -0.10966,1.35849 -0.10966,2.15044 0,0.79194 0.0365,1.58084 0.10966,2.14129 l 0.009,0.0761 0.0609,0.0396 c 0.1919,0.1401 0.28937,0.23453 0.33506,0.2924 0.0457,0.067 0.0426,0.0609 0.0426,0.0761 0.003,0.0213 -0.009,0.0701 -0.009,0.14316 0,0.20103 0.10052,0.4173 0.47212,0.79804 l 0.0274,2.37584 0.0609,0.0396 c 0.0335,0.0883 0.0761,0.53304 0.0914,0.92292 0.0152,0.21016 0.0244,0.42034 0.0457,0.58786 0.0213,0.16144 0.0183,0.26196 0.0944,0.38075 0.21627,0.43252 0.26196,1.09654 0.25891,1.39199 l 0,0.16144 -0.009,0.0975 0.0731,0.0518 c 0.0335,0.0579 0.0914,0.36247 0.12184,0.63965 0.0274,0.15535 0.0487,0.30155 0.0792,0.42644 0.0183,0.10051 0.0304,0.18275 0.0792,0.26194 -0.003,0.17058 -0.003,0.38684 -0.003,0.60006 0,0.4843 0.009,0.97165 0.009,0.97165 l 0,0.0944 0.0822,0.0487 c 0.006,0 0.10356,0.16753 0.17057,0.35638 0.0701,0.16752 0.10965,0.3381 0.21322,0.47821 l 0.2254,1.96159 0.07,0.0426 -0.006,0 c 0.0244,0.0609 0.0457,0.26196 0.0609,0.45689 0.0274,0.17058 0.0122,0.33201 0.10356,0.48735 0,0.58178 0.009,5.72029 0.009,9.31147 0,1.90067 0,3.37795 -0.009,3.47236 l 0,0.097 0.0883,0.052 c 0.1462,0.1127 0.25281,0.198 0.39292,0.3198 0.0457,0.329 0.10052,0.8438 0.10052,1.2763 0,0.2863 -0.0304,0.5452 -0.0853,0.6549 -0.20408,0.2101 -0.40815,0.664 -0.65488,1.2793 -0.74625,1.8885 -1.68136,5.1324 -1.68136,5.1354 l -0.009,0.024 0,0.027 c 0.009,0.1828 0.12183,0.3138 0.25585,0.4417 0.93512,0.8468 4.42577,2.3027 6.20765,7.1519 l 0.20103,0.5635 0.13707,-0.5818 c 0.35332,-1.4773 0.44166,-2.4063 0.44166,-3.0246 0,-0.4478 -0.0487,-0.7311 -0.0792,-0.929 0.0792,-0.049 0.12793,-0.067 0.18275,-0.1097 0.0822,-0.043 0.14926,-0.1218 0.23149,-0.2437 l 0.0304,-0.034 0.003,-0.043 c 0.0152,-0.1157 0.0305,-0.2558 0.0305,-0.4203 0,-1.2032 -0.43253,-3.7465 -0.48735,-4.7639 0.32591,-0.7828 0.4112,-1.794 0.4112,-2.7809 0,-0.6854 -0.0396,-1.3555 -0.0853,-1.919 -0.0182,-0.2315 -0.1462,-0.402 -0.23758,-0.5361 -0.10661,-0.137 -0.17058,-0.2467 -0.16449,-0.2802 0,-0.015 -0.006,-0.027 0,-0.043 -0.006,-0.131 0.0487,-0.265 0.11575,-0.3655 0.0305,-0.058 0.0731,-0.1005 0.0975,-0.1279 0.009,-0.021 0.0213,-0.03 0.0304,-0.04 l 0.0761,-0.052 0,-0.131 c 0,-0.9077 -1.18182,-10.58772 -1.17878,-11.80305 l 0,-0.064 0,-0.006 0.0122,-0.0274 -0.006,-0.0487 0,-0.0396 c -0.009,-0.28327 0.25281,-0.65793 0.43861,-1.02954 0.4234,-0.88636 0.54523,-1.30975 0.54523,-1.75141 0,-0.19494 -0.0213,-0.38379 -0.0457,-0.61833 0.13707,0.067 0.30156,0.18885 0.47517,0.37465 0.81631,0.84982 1.77579,2.76572 2.36366,3.82875 l 0,0.003 c 0,0.0183 0.009,0.0792 0.009,0.15535 0,0.58786 -0.30155,2.08952 -0.43862,3.19215 l -0.0183,0.15839 0.15534,0.0304 c 0.21018,0.0335 0.56351,0.50867 0.84678,1.22752 0.89246,2.15044 1.53516,6.36302 1.52906,6.72852 l 0,0.012 -0.006,0.021 0.006,0.018 c 0.0304,0.1614 0.0548,0.7462 0.0487,1.4651 0.006,1.59 -0.0822,3.9414 -0.19799,4.4958 -0.11879,0.6518 -0.51781,1.788 -0.89246,2.8388 -0.37465,1.06 -0.72493,2.0073 -0.73103,2.452 0,0.055 0.006,0.1066 0.0304,0.1645 l 0.0487,0.1157 0.12184,-0.01 0.0731,0 0.6427,0 c 1.04171,0 1.68745,0.1401 4.14858,2.5221 0.2254,0.2193 0.71884,0.4112 1.2001,0.5939 0.46907,0.1828 0.89246,0.3107 0.89856,0.3107 l 0.18275,0.061 0.0457,-0.201 c 1.09959,-5.3639 0.9412,-5.5314 1.18488,-6.1102 0.14316,-0.3381 0.20103,-0.6183 0.20103,-0.8528 0,-0.2985 -0.0914,-0.5148 -0.17971,-0.6671 -0.0396,-0.076 -0.0762,-0.1401 -0.10661,-0.1797 -0.009,-0.012 -0.0152,-0.027 -0.0213,-0.037 0.21931,-1.0813 0.28632,-1.8398 0.28632,-2.3941 0,-0.9047 -0.17971,-1.3006 -0.17361,-1.5474 0.009,-0.1309 0.0304,-0.2497 0.1858,-0.4751 l 0.0396,-0.055 z m -95.76126,-34.8913 0,0.003 c -0.1127,0.0883 -0.0883,0.17363 -0.0975,0.21931 0.009,0.35333 0.33506,1.26712 0.45081,1.58999 -0.2254,0.23149 -0.28631,0.61833 -0.35942,1.08131 -0.0701,0.53913 -0.0914,1.17574 -0.0914,1.7301 0,0.42947 0.0152,0.80413 0.0213,1.03257 -1.3128,0.14621 -1.88543,0.81023 -2.21745,1.45596 -0.33505,0.65184 -0.49039,1.22752 -0.94424,1.392 -0.0183,-0.0213 -0.0609,-0.0396 -0.1127,-0.064 -0.0914,-0.0457 -0.2193,-0.0883 -0.3716,-0.0883 l -0.0274,0 c -0.13402,0.003 -0.28937,0.0244 -0.46603,0.0853 l 0,-8.83629 c 0.1523,-0.0883 0.25282,-0.15839 0.33201,-0.24976 0.14011,-0.17667 0.11575,-0.35029 0.12488,-0.50563 0.006,-0.11575 0.0152,-0.26196 0.10052,-0.4904 0.0457,-0.0213 0.10052,-0.0487 0.15839,-0.0731 0.003,-0.006 0.009,-0.006 0.0122,-0.006 -0.003,0.0487 -0.0122,0.10052 -0.0365,0.15535 l -0.12793,0.28936 2.03469,-0.28936 0.21931,0 c 0.332,0.68838 0.7097,0.91682 1.10262,0.96556 0.31374,0.0457 0.60311,0.0152 0.96557,0.14316 l -0.67011,0.45994 z m 0.33505,31.9154 0,0 c 0.006,0.2163 -0.17057,1.0113 -0.36856,1.7301 -0.0944,0.3655 -0.20408,0.7158 -0.28936,0.9686 -0.0487,0.1371 -0.0853,0.2468 -0.11575,0.3199 -0.0183,0.04 -0.0304,0.073 -0.0427,0.082 l -0.009,0.01 -0.0366,0.027 -0.0152,0.073 c -0.14925,0.7706 -0.14011,1.6143 -0.17667,2.3484 -0.0426,0.7219 -0.15534,1.3219 -0.46603,1.5991 -0.35637,0.2589 -0.72798,0.7828 -1.15441,1.261 -0.42643,0.4874 -0.88637,0.8834 -1.25493,0.8955 l -0.064,0.01 -1.0539,0.9565 c -0.37466,0.137 -0.90465,0.2375 -1.25189,0.2802 0.0914,-0.1645 0.20408,-0.3777 0.32288,-0.6031 0.12792,-0.2315 0.24672,-0.463 0.34723,-0.6518 0.0457,-0.091 0.0914,-0.1737 0.12184,-0.2346 0.0274,-0.076 0.0426,-0.082 0.0487,-0.1888 0,-0.018 0.006,-0.043 -0.0183,-0.094 -0.0152,-0.024 -0.0304,-0.046 -0.0609,-0.058 -0.0365,-0.4996 -0.0609,-1.6144 -0.0609,-1.6144 0,-2.2052 -0.0213,-3.2317 -0.0213,-3.6764 0.0152,-0.021 0.0274,-0.04 0.0304,-0.052 0.0457,-0.091 0.067,-0.2041 0.10965,-0.463 0.0213,-0.2132 0.17362,-0.2681 0.4173,-0.5331 l 0.0396,-0.046 0,-8.71746 -0.10661,-0.0457 c -0.24062,-0.10052 -0.34723,-0.265 -0.35028,-0.50868 0,-0.0182 0,-0.0335 0.003,-0.0548 0.0182,-0.25281 0.11879,-0.3777 0.34724,-0.47517 l 0.0914,-0.0365 0.4904,-2.37889 -0.0152,-0.0426 c -0.003,0 -0.28632,-1.12396 -0.28632,-2.08648 -0.006,-0.4843 0.0822,-0.91987 0.24976,-1.127 l 0.0365,-0.0396 0.0122,-0.0518 c 0.0335,-0.4112 0.0396,-1.08436 0.0396,-1.80624 0,-1.00212 -0.0213,-2.08648 -0.0304,-2.68958 l 1.13918,1.17879 c 0.009,0.0122 1.01126,0.97165 1.89458,1.459 0.0396,0.0457 0.21322,0.19799 0.36856,0.39293 0.20104,0.22845 0.38075,0.52695 0.36856,0.69448 0,0.0701 -0.006,0.11269 -0.0609,0.15838 -0.0853,0.064 -0.12793,0.17667 -0.12184,0.27109 0,0.20409 0.1188,0.34724 0.19799,0.49345 0.0792,0.12184 0.14011,0.24367 0.1523,0.28936 -0.0122,0.003 -0.0548,0.0152 -0.10965,0.0182 l -0.3777,0.0213 0.2589,0.27718 c 0,0 0.0975,0.11575 0.21626,0.31373 0.1127,0.20103 0.22236,0.46603 0.22236,0.7493 0,0.16144 -0.0396,0.33201 -0.11879,0.49345 l -0.0762,0.1523 0.14924,0.0822 c 0.0883,0.0426 0.12794,0.13097 0.12794,0.32591 0.009,0.53304 -0.43253,1.45292 -0.44775,1.95855 0,0.49648 0.0518,0.79804 0.13098,1.01734 0.13401,0.32896 0.32591,0.41121 0.40815,0.56045 0.10661,0.1523 0.21626,0.4508 0.21626,1.25189 -0.39902,0.31373 -0.55741,0.73103 -0.54827,1.13918 0.0152,0.9016 0.6366,1.86108 0.62137,2.39716 -0.006,0.17667 -0.0396,0.28023 -0.17057,0.37465 l -0.21627,0.1523 0.21931,0.14316 c 0.18276,0.12184 0.20104,0.20407 0.20408,0.31982 0.0183,0.19799 -0.14925,0.47213 -0.15534,0.78585 0,0.082 0.0152,0.1675 0.0487,0.2467 m 6.21679,2.9089 c -0.006,-1.0691 -0.32288,-2.187 -0.32288,-2.7444 0,-0.1614 0.0274,-0.2589 0.0518,-0.2802 0.61833,-0.79805 0.795,-1.73011 0.795,-2.72005 -0.009,-1.27321 -0.27109,-2.6652 -0.27109,-4.1242 l 0,-0.17667 0,-0.88333 0,-1.09044 c 0.0944,-0.10661 0.14621,-0.22236 0.14621,-0.34724 -0.0183,-0.31678 -0.26196,-0.47822 -0.47822,-0.65184 -0.21322,-0.16752 -0.42643,-0.34723 -0.49954,-0.51476 -0.26804,-0.61224 -0.36551,-1.42245 -0.36551,-2.22049 0,-1.59913 0.37465,-3.1556 0.37465,-3.15865 l 0.0274,-0.1127 -0.0914,-0.067 c -0.27109,-0.1919 -0.38684,-0.29546 -0.42644,-0.34114 -0.006,-0.003 -0.006,-0.0122 -0.006,-0.0122 l 0,-0.003 c 0.006,-0.0579 -0.0274,-0.19494 -0.13707,-0.34114 -0.10661,-0.16448 -0.30459,-0.38684 -0.67925,-0.75539 l -0.16144,-0.16144 -0.11574,0.18885 c -0.0548,0.0883 -0.0701,0.0762 -0.0701,0.0792 0,0 -0.0274,-0.003 -0.0579,-0.0365 -0.1127,-0.0822 -0.24063,-0.38074 -0.23453,-0.56654 -0.006,-0.0975 0.0304,-0.13403 0.0396,-0.14012 l 0.0244,-0.0213 0.0152,-0.0244 c 0.009,-0.0182 0.48126,-0.69447 0.4904,-1.30062 0.0122,-0.31068 -0.18276,-0.65183 -0.6031,-0.71884 l -0.009,-0.003 -0.006,0 c -0.64575,-0.064 -1.18792,-0.26195 -1.55648,-0.48735 -0.18885,-0.10661 -0.33201,-0.21626 -0.41729,-0.31374 -0.0457,-0.0426 -0.0792,-0.0883 -0.0944,-0.11879 -0.0152,-0.0152 -0.0152,-0.0213 -0.0152,-0.0274 0.51781,-0.60919 2.04078,-2.45199 2.68653,-3.65514 l 1.69964,-3.19215 c 0.36551,-0.36855 0.46602,-0.87723 0.46602,-1.44987 0,-0.98689 -0.30459,-2.22354 -0.30459,-3.54853 -0.006,-1.32803 -0.83764,-3.83789 -2.37888,-4.88874 -0.42948,-0.28936 -0.89551,-0.34419 -1.2062,-0.34419 -0.10966,0 -0.20408,0.006 -0.26195,0.0122 -0.1584,-0.14004 -0.39294,-0.25579 -0.61834,-0.44464 -0.26194,-0.21321 -0.51476,-0.48126 -0.61224,-0.862 l -0.0244,-0.12184 -0.12184,-0.0152 c -0.88636,-0.14316 -1.5321,-0.1919 -2.10778,-0.1919 -1.30063,0 -2.19613,0.24063 -4.66335,0.24063 l -2.43371,-0.0761 c -0.30155,0 -1.19706,0.0609 -2.05906,0.17058 -0.44471,0.0548 -0.85591,0.11574 -1.19401,0.18884 -0.29241,0.0731 -0.50563,0.11271 -0.66706,0.23149 l -2.45199,0 -0.0487,0.0822 c -0.23453,0.38075 -0.2985,0.38075 -0.39597,0.49954 -0.10965,0.16144 -0.0883,0.27718 -0.0914,0.72189 0,0.25281 -0.006,0.38988 -0.006,0.47822 0.006,0.067 -0.009,0.12183 0.0335,0.20407 0.10661,0.11879 0.1127,0.0822 0.15839,0.12793 0.0579,0.0518 0.14925,0.16144 0.30155,0.40207 l 0.006,0.0183 1.50774,1.43464 c 0.0518,0.067 0.1462,0.17362 0.24368,0.28023 -0.0213,0.0152 -0.0457,0.0518 -0.0609,0.13707 0,0.0853 0.0548,0.13402 0.0853,0.15534 0.0823,0.0396 0.0823,0.0244 0.11575,0.0335 l 0.0792,0 0.0183,0 c 0.0152,0.0122 0.0244,0.0213 0.0335,0.0274 0.0579,0.0274 0.0305,0.0457 0.16753,0.0701 0.0365,0 0.10052,-0.0244 0.14316,-0.0701 0.0122,-0.0152 0.0152,-0.0274 0.0244,-0.0396 0.14926,-0.009 0.29242,-0.0183 0.38379,-0.0274 0.12793,0.15229 0.20713,0.23453 0.26196,0.27413 0,0.003 0,0.003 0.003,0.009 -0.003,0.0609 -0.0152,0.22235 -0.0152,0.52694 0,0.3381 0.0365,0.52696 0.0365,0.6092 -0.0122,0.0548 0.003,0.0244 -0.0396,0.0822 -0.0548,0.0518 -0.17971,0.14315 -0.38074,0.29545 l -0.0792,0.0487 0,11.74516 0.50258,0.83764 c 0.0182,0.14011 0.0579,0.62442 0.0579,1.06304 0.006,0.31982 -0.0274,0.62746 -0.0731,0.69752 -0.0487,0.0792 -0.38075,0.54522 -0.44166,1.00516 l 0,0.006 -0.0457,3.36882 0.35637,0.74017 0.10661,2.31492 c -0.003,0.009 -0.009,0.0182 -0.0152,0.0274 -0.067,0.12184 -0.2193,0.35333 -0.54522,0.37465 l -0.17057,0.0274 0.0122,0.16448 c 0.009,0.23758 0.0183,0.53 0.0183,0.86505 0,1.76969 -0.16448,4.76081 -0.16448,7.68492 l 0,0.006 0,0.0122 c 0.21931,1.78794 0.35333,4.28264 0.40511,4.61154 0.11879,0.9077 0.16448,1.6235 0.16448,2.3332 0,1.4133 -0.16448,2.7962 -0.16752,5.4888 -0.15535,0.8133 -0.38379,1.8459 -0.59701,2.6926 -0.1127,0.4234 -0.21626,0.7981 -0.30764,1.0752 -0.0426,0.1371 -0.0853,0.2437 -0.1127,0.3229 -0.0182,0.04 -0.0274,0.07 -0.0335,0.085 -0.006,0 -0.006,0 -0.006,0 l -0.0183,0.01 c -0.13403,0.1401 -0.48736,0.3351 -0.79804,0.4782 -0.31374,0.1402 -0.57873,0.2468 -0.57873,0.2468 l -0.32592,0.1188 0.29241,0.1888 c 0.0792,0.058 0.34419,0.3015 0.54827,0.4843 l 0.17058,0.1432 0.0975,-0.1615 c 0.0213,-0.01 0.0914,-0.015 0.17666,-0.012 0.35942,-0 1.00516,0.1006 1.50165,0.1036 0.21017,-0 0.39293,-0.012 0.55132,-0.088 0.31069,0.049 1.66918,0.265 2.80532,0.265 0.40206,0 0.77367,-0.027 1.07522,-0.1005 0.27109,-0.073 0.52085,-0.1858 0.61832,-0.4234 0.32288,-0.3077 0.53609,-0.3838 0.67315,-0.3838 0.16449,-0 0.29546,0.1127 0.44471,0.2772 0.14621,0.1462 0.265,0.3655 0.5635,0.3929 0.16753,-0.01 0.31069,-0.1157 0.43862,-0.2741 0.0457,-0.04 0.29546,-0.128 0.59091,-0.195 0.91988,-0.2315 2.46418,-0.4538 2.47027,-0.4538 l 0.11574,-0.01 0.0335,-0.1036 c 0.22236,-0.6427 1.18487,-1.2519 2.12607,-1.9494 1.06304,-0.7767 2.97589,-1.6631 2.98198,-1.6692 l 0.0914,-0.04 0.009,-0.097 c -0.006,-0.01 0.18885,-2.0225 0.6366,-3.1677 0.38075,-0.9565 1.33413,-2.3211 1.33413,-2.3271 l 0.0122,-0.015 0.003,-0.012 c 0.006,-0.01 0.60309,-1.3464 0.77976,-2.2936 0.0365,-0.2376 0.0579,-0.4813 0.0579,-0.7219 m 38.74749,-8.22409 0,-0.4508 0.0152,-0.1858 -1.30366,0 -0.0518,0.0609 c -0.39902,0.44775 -0.40816,0.91987 -0.53914,1.29757 -0.12184,0.36247 -0.31677,0.68839 -1.04171,1.02953 -0.0853,-0.12184 -0.15838,-0.21931 -0.24367,-0.36551 l -0.1127,-0.19494 -0.15534,0.14925 c -0.4965,0.47517 -0.78587,1.47728 -0.85896,1.95245 -1.14223,0.0914 -1.98901,1.02953 -2.63779,1.95244 -0.34724,0.4843 -0.63356,0.9778 -0.87724,1.3646 -0.24063,0.3868 -0.46907,0.6579 -0.54826,0.6914 -0.66707,0.3046 -1.13614,0.3991 -1.46511,0.4295 -0.34114,0.043 -0.52085,-0.015 -0.73407,0.067 -0.88333,0.4386 -1.36458,0.7188 -1.6844,0.8925 -0.32288,0.1644 -0.43558,0.2162 -0.65793,0.2162 -0.22845,0 -0.37161,0.03 -0.42339,0.027 0,-0 -0.006,-0 -0.0122,0 -0.003,0 0,0 -0.0457,-0.037 -0.0457,-0.046 -0.11271,-0.1523 -0.2254,-0.3076 0.1797,-0.2741 0.38379,-0.7371 0.61832,-1.328 0.40816,-1.0113 0.88942,-2.3515 1.28539,-3.44502 0.19494,-0.54827 0.37466,-1.02952 0.51172,-1.37372 0.0731,-0.17362 0.13402,-0.30764 0.17058,-0.40206 0.0244,-0.0365 0.0396,-0.0701 0.0487,-0.0822 l -0.009,-0.009 0.009,0.0122 -0.0853,-0.0944 0.18276,-0.0183 0,-1.25189 c -0.0152,-0.0548 0.13402,-0.60919 0.3777,-1.30975 0.36551,-1.06913 0.95947,-2.57992 1.6174,-3.88967 0.64574,-1.30672 1.39199,-2.4124 1.93721,-2.61952 l 0.12794,-0.0579 -0.0304,-0.1462 c 0,0 -0.12793,-0.58787 -0.12793,-1.19098 0,-0.30763 0.0365,-0.60613 0.12793,-0.82849 0.17361,-0.47212 0.71884,-0.93206 1.23056,-1.25493 0.51476,-0.32592 0.9747,-0.51781 0.9747,-0.51781 l 0.10661,-0.0457 0,-2.16872 c 0.42034,-0.48126 0.7493,-1.58998 1.18487,-2.74744 0.44471,-1.2001 1.00212,-2.42457 1.66004,-2.89669 l 0.10052,-0.0701 -0.0304,-0.12488 c 0,0 -0.16753,-0.56655 -0.16753,-1.23057 0,-0.58482 0.13402,-1.21228 0.57873,-1.5717 l 0.0609,-0.0579 0,-8.44337 c 0,-0.31983 -0.15839,-0.5239 -0.27109,-0.66401 -0.11575,-0.1523 -0.18885,-0.24368 -0.19494,-0.45994 l 0,-2.54337 -0.17362,0 c -6.41172,0 -6.99654,-0.0518 -13.52095,-0.0518 l -0.21018,0 0.0274,0.20104 c 0.009,0.0335 0.0152,0.0548 0.0152,0.0883 0,0.20713 -0.10357,0.46908 -0.21626,0.67621 -0.11574,0.20712 -0.21931,0.34419 -0.21931,0.34419 l -0.0396,0.0548 0,4.39529 0.0792,0.0518 c 0.17972,0.12489 0.27718,0.19495 0.43253,0.34724 0.27718,0.28327 0.39901,0.75236 0.39292,1.27016 0.006,1.0204 -0.42947,2.15958 -0.42947,2.16567 l -0.0548,0.13098 0.11575,0.0761 c 0.0244,0.009 0.0609,0.0731 0.0761,0.21018 0.0274,0.13097 0.0304,0.30155 0.0609,0.47516 0.11575,0.6031 0.25586,1.56562 0.25586,1.56562 l 0.006,0.0761 0.064,0.0457 c 0.36855,0.265 0.38988,0.39293 0.38988,0.51781 0.009,0.0944 -0.0335,0.21931 -0.0335,0.39597 -0.006,0.23454 0.10052,0.51172 0.43557,0.81632 l 0.15839,0.1462 0.11575,-0.18276 c 0.65183,-1.0874 0.92901,-1.47119 0.94728,-1.83975 l 0,-3.74651 c -0.009,-0.25586 0.28023,-0.57873 0.67011,-0.81327 0.3777,-0.23454 0.84068,-0.38379 0.99603,-0.38074 l 0.17666,0 0,-0.17666 c 0.009,-2.64693 2.02251,-2.72003 2.77791,-3.43888 l 5.08368,0.0487 0,3.11601 c -1.57171,1.46814 -2.16262,3.09468 -3.15865,3.80134 l -0.0396,0.0304 -0.0152,0.0365 c -0.21018,0.44166 -0.27109,0.9351 -0.27109,1.392 0,0.72189 0.15838,1.37068 0.22844,1.62653 -1.52907,1.41941 -1.8032,2.16871 -1.84585,2.43067 -0.0975,0.0792 -0.30154,0.22235 -0.50562,0.3777 -0.14925,0.1066 -0.29241,0.21626 -0.40511,0.29545 -0.0548,0.0427 -0.0975,0.0792 -0.13098,0.10966 -0.0244,0.0152 -0.0396,0.0274 -0.0518,0.0335 -0.0122,0.0213 -0.006,0.006 -0.0518,0.0548 -0.80718,1.2458 -1.63262,5.37914 -1.73619,5.87868 -0.99907,1.08435 -1.44683,1.96159 -1.66917,2.62865 -0.21018,0.62746 -0.22541,1.08436 -0.28937,1.22447 -0.13098,0.16143 -1.13919,1.33717 -1.62044,2.26313 -0.29242,0.58178 -0.37466,1.2458 -0.46604,1.80321 -0.0792,0.55741 -0.1858,0.99602 -0.39597,1.13004 l -0.0792,0.0518 0,0.10051 c 0.006,0.0304 0.006,0.0579 0.006,0.0914 0.006,0.87723 -0.51172,2.58601 -0.51172,4.05415 0,0.25282 0.0122,0.50259 0.0548,0.74017 l 0.003,0.0487 0.0304,0.0335 c 0,0 0.009,0.0152 0.0396,0.0609 0.0761,0.11574 0.24368,0.4112 0.24368,0.77975 0,0.24673 -0.0701,0.51173 -0.28937,0.81328 l -0.10661,0.1462 0.1523,0.10356 c 0.0731,0.0426 0.33506,0.4539 0.51172,0.8315 0.0975,0.1919 0.17971,0.3838 0.24672,0.5331 0.0244,0.073 0.0548,0.1401 0.064,0.1858 0.009,0.027 0.0152,0.043 0.0152,0.052 l 0.006,0 c 0,0.1767 0.009,0.2954 0.009,0.3564 -0.006,0.073 0.009,0.043 -0.0304,0.094 -0.0457,0.049 -0.15534,0.134 -0.35942,0.2802 l -0.0853,0.049 0,3.0094 c -0.10051,0.1005 -0.24367,0.2345 -0.37769,0.3716 -0.0701,0.079 -0.13707,0.1523 -0.19494,0.2163 -0.0244,0.031 -0.0487,0.061 -0.064,0.088 -0.0183,0.037 -0.0487,0.052 -0.0518,0.1492 -0.0122,0.1919 0.067,0.3442 0.15839,0.4356 0.0975,0.094 0.1858,0.1705 0.33201,0.4051 l 0.0487,0.085 3.59117,0 c 0.51782,0.5513 1.53516,0.731 1.55039,0.7462 l 0.0183,0 0.0304,0 c 0.47517,0 0.66706,-0.3533 0.8285,-0.5756 0.17666,-0.2315 0.31982,-0.4113 0.88637,-0.4265 0.31677,0 0.49344,-0.04 0.56349,-0.04 0.003,0.01 0.009,0 0.0152,0 0.003,0 0,0 0.0426,0.036 0.0426,0.061 0.13097,0.195 0.27109,0.4143 l 0.0457,0.088 5.27558,0 0.0487,-0.088 c 0.12793,-0.2011 0.49649,-0.4508 0.8681,-0.6245 0.35942,-0.1736 0.75844,-0.2863 0.83459,-0.2802 l 0.18275,0 -0.006,-0.1888 c 0,-0.01 -0.15535,-2.7962 -0.15535,-4.8522 0,-0.5209 0.009,-0.9869 0.0304,-1.34938 0.0182,-0.32287 0.0609,-0.58178 0.0914,-0.66707 0.30155,-0.30763 0.36856,-0.64878 0.45385,-0.88941 0.10051,-0.25281 0.16448,-0.38684 0.53608,-0.49649 l 0.19494,-0.0609 -0.0761,-0.1858 c -0.19799,-0.46299 -0.24368,-1.57476 -0.24064,-2.19004 m 24.88538,-3.43887 -0.1066,0 c -0.0792,0 -0.16753,0 -0.27109,-0.006 -0.91378,-0.28327 -1.65395,-1.20314 -2.99112,-1.50165 -0.45994,-0.0944 -0.92597,-0.12793 -1.34936,-0.12793 -0.30459,0 -0.58482,0.0152 -0.83763,0.0427 l 0.009,-0.064 c 0.0579,-0.20712 0.067,-0.47517 0.0731,-0.80718 0,-0.83763 -0.1066,-2.01032 -0.1066,-2.86623 0,-0.26195 0.006,-0.49345 0.0335,-0.66097 0.12489,-0.17058 0.1858,-0.4112 0.24368,-0.70057 0.15534,-0.78281 0.21322,-1.90981 0.2254,-2.31187 0.48735,-0.0944 0.69448,-0.47212 0.79194,-0.80718 0.12184,-0.3777 0.19495,-0.73103 0.52086,-0.95643 l 0.0701,-0.0548 0,-0.0883 0.0822,-2.08343 c 0.19189,0.53304 0.47822,1.1666 0.82546,1.55038 0.31677,0.33506 0.67924,0.42948 1.0082,0.50563 0.33201,0.0761 0.61833,0.14621 0.90769,0.40511 0.31069,0.26195 0.44776,1.02649 0.50867,1.76056 0.0365,0.36856 0.067,0.73103 0.1188,1.03867 0.0518,0.2589 0.10051,0.4843 0.24977,0.64878 0.0426,0.35029 0.0609,1.23361 0.0609,2.25096 0,1.86107 -0.0579,4.19731 -0.067,4.83391 m 5.93351,-1.30062 -0.0304,-0.0213 c -0.0183,-0.0792 -0.0823,-0.35028 -0.13707,-0.69751 -0.20408,-1.20011 -0.48126,-3.47848 -0.48126,-4.25519 0,-0.0579 0,-0.10661 0.006,-0.14316 l 0.13707,-0.0274 0,-2.71088 -0.0762,-0.0548 c -0.38378,-0.27413 -0.40206,-0.39902 -0.40206,-0.49648 -0.009,-0.0853 0.0487,-0.21322 0.0487,-0.4173 0.006,-0.24672 -0.11575,-0.52999 -0.49954,-0.88941 l 0,-2.01338 -0.0701,-0.0457 c -0.1462,-0.0975 -0.26195,-0.20712 -0.40816,-0.332 l -1.44987,-5.72334 -0.0122,-0.0122 c 0,0 -0.41729,-1.07826 -0.83154,-2.31796 -0.42948,-1.22447 -0.84373,-2.63779 -0.83764,-3.19825 l 0,-1.37676 c 0.006,-0.14316 -0.0335,-0.27414 -0.11269,-0.37161 -0.18276,-0.28631 -0.58178,-0.55131 -1.51689,-2.56773 -0.0304,-0.0518 -0.064,-0.27719 -0.1066,-0.55131 -0.0518,-0.42035 -0.12793,-0.96557 -0.32288,-1.42855 -0.18276,-0.46299 -0.53913,-0.87419 -1.11481,-0.87419 -0.42339,-0.003 -0.7158,0.19494 -0.85591,0.48126 -0.12793,0.28327 -0.14621,0.61528 -0.14621,0.94729 0,0.18276 0.003,0.35333 0.003,0.52086 0,0.29241 -0.0183,0.56349 -0.0853,0.74321 -0.0822,0.17666 -0.17057,0.27109 -0.39597,0.2985 l -0.0487,0.009 -0.0305,0.0244 c -0.42339,0.26804 -0.55436,0.45384 -0.62747,0.60614 -0.067,0.13402 -0.0518,0.17666 -0.34419,0.39597 l -0.0731,0.0518 0,2.00728 c -0.61224,0.56959 -0.61224,0.862 -0.9016,1.37067 -0.49649,0.88333 -0.91988,2.30883 -0.99907,2.60124 -0.12488,0.0975 -0.28936,0.16753 -0.4508,0.36552 -0.13098,0.16448 -0.17971,0.35028 -0.17971,0.51781 0.009,0.35942 0.17666,0.64269 0.17057,0.9686 0,0.0548 -0.006,0.10052 -0.0152,0.1584 -0.55437,0.54218 -0.85592,1.37981 -1.26711,2.26009 -0.4234,0.93206 -0.44167,1.98291 -0.52086,2.87233 -0.0762,0.88941 -0.20713,1.5778 -0.70971,1.86717 l -0.0853,0.0518 0,0.10052 c 0,0.74016 -0.13402,1.39505 -0.26499,1.86107 -0.12794,0.46299 -0.26196,0.73103 -0.25891,0.73103 -0.30459,0.58482 -0.65488,0.87114 -0.88637,1.58389 -0.067,0.23149 -0.0914,0.42948 -0.0914,0.61528 0,0.41425 0.11879,0.70667 0.11879,1.15137 0,0.1858 -0.0213,0.40816 -0.0853,0.68229 -0.0183,0.14316 -0.0274,0.25891 -0.0274,0.36247 -0.0152,0.37465 0.19798,0.57873 0.35028,0.63051 0.0731,0.0304 0.10661,0.0548 0.1127,0.064 0.009,0.0122 0.0274,0.0152 0.0335,0.10051 -0.0244,0.3442 -0.0579,0.35638 -0.38988,0.6031 l -0.0792,0.0548 0,2.00119 c -0.11879,0.0944 -0.26195,0.16753 -0.4112,0.3442 -0.23149,0.27108 -0.29241,0.61224 -0.29241,0.94424 0,0.53609 0.16448,1.07826 0.23149,1.27625 -0.0213,0.0396 -0.0274,0.0761 -0.0518,0.13098 -0.16448,0.62442 -0.39902,2.60732 -0.39902,2.61342 l -0.009,0.10661 0.0853,0.0609 c 0.27718,0.17971 0.40512,0.29851 0.38379,0.35333 0,0.0518 -0.0183,0.10356 -0.10661,0.17971 -0.25585,0.23759 -0.96251,0.4173 -1.30671,0.9808 -0.35942,0.61223 -0.41424,1.58998 -0.42338,1.8763 -0.59091,0.53609 -0.79804,0.73103 -1.63568,1.87322 l -0.0792,0.1006 0.0731,0.1005 c 0.28632,0.4355 0.28632,0.5239 0.30155,0.6701 0.0244,0.1584 0.0579,0.3899 0.35333,0.8528 l 0.0701,0.1249 0.14011,-0.049 c 0.006,0 2.49159,-0.9381 4.70294,-1.6783 0.17971,-0.058 0.70362,-0.079 1.28539,-0.076 1.14832,0 2.55859,0.085 2.56469,0.085 l 0.15534,0.01 0.0274,-0.1492 c 0.0518,-0.265 0.21018,-0.51785 0.37466,-0.73411 0.07,-0.10965 0.14925,-0.20103 0.21931,-0.29241 0.0609,-0.0975 0.11574,-0.16753 0.13097,-0.2985 0.003,-0.14011 -0.14621,-0.25891 -0.24367,-0.26805 -0.1919,-0.0335 -0.43557,-0.25281 -0.68229,-0.49344 -0.20713,-0.1919 -0.43253,-0.40206 -0.7158,-0.47821 l 0,-2.49159 -0.38988,-1.16659 0.83154,0 c 0.20103,0.21017 0.58482,0.43861 1.09349,0.73407 0.84069,0.47516 1.97378,1.05999 2.89974,1.62349 0.45385,0.27413 0.85592,0.54827 1.14528,0.79194 0.28632,0.23454 0.42339,0.46299 0.40815,0.53 l 0,0.006 c -0.067,2.04992 -0.81022,3.8318 -1.52906,5.102 -0.35942,0.6366 -0.71884,1.1422 -0.98079,1.4894 -0.27414,0.3473 -0.43557,0.53 -0.43557,0.53 l -0.0548,0.049 0,0.076 c 0,1.0874 0.62441,1.8215 1.20619,2.4185 0.59701,0.5909 1.11787,1.0752 1.10873,1.5717 l 0,1.3981 1.37677,4.4897 0,2.8967 0.26804,-0.1462 c 0.12184,-0.064 0.20713,-0.097 0.24672,-0.1157 0.0183,0.018 0.0244,0.037 0.0396,0.052 0.0396,0.049 0.12489,0.091 0.20409,0.091 0.1858,0.01 0.34419,-0.091 0.42338,-0.1889 0.0853,-0.097 0.16144,-0.1949 0.37161,-0.3503 l 0.067,-0.052 0,-2.1321 c 0.13097,-0.1188 0.24062,-0.198 0.39292,-0.3046 l 0.0701,-0.058 0,-1.6448 c 0.36856,-0.4021 0.52086,-1.0783 0.70666,-1.7149 0.16448,-0.664 0.36856,-1.3006 0.60614,-1.4499 l 0.0822,-0.058 0,-2.6408 c 0.57569,-0.6214 0.96557,-1.7819 1.30671,-2.8571 0.17972,-0.5604 0.33202,-1.0904 0.48736,-1.5169 0.15534,-0.4203 0.32896,-0.7249 0.43252,-0.7919 l 0.0579,-0.046 0.0152,-0.058 c 0.1523,-0.6183 0.20408,-3.10079 0.20408,-5.63196 0,-2.45503 -0.0518,-4.91007 -0.14011,-5.65633 l -0.0152,-0.0792 z m -11.12076,13.70072 c -0.0183,-0.6488 -0.4843,-0.9382 -0.72493,-1.3463 l -0.0518,-0.085 -2.31796,0 c -0.13707,-0.1676 -0.26805,-0.2955 -0.42644,-0.4509 l -0.15838,-0.1431 -0.11575,0.1858 c -0.61833,1.0052 -1.11177,1.3311 -1.68746,1.5961 -0.57568,0.265 -1.26711,0.4508 -2.17785,1.0935 -0.15534,0.1157 -0.65183,0.2467 -1.15441,0.399 -0.51477,0.1645 -1.05999,0.3716 -1.41637,0.7432 -0.35638,0.3929 -0.40815,0.8559 -0.44775,1.1849 -0.0244,0.1614 -0.0548,0.3046 -0.0883,0.3777 -0.0487,0.076 -0.067,0.1066 -0.16448,0.1309 -0.70971,0.01 -1.2458,0.2041 -1.75751,0.198 -0.25282,0 -0.50867,-0.04 -0.795,-0.1766 l -0.14925,-0.073 -0.0792,0.1401 c -0.0883,0.1371 -0.15534,0.2619 -0.20712,0.332 -0.0701,0.076 -0.0883,0.079 -0.10051,0.079 -0.13403,0.01 -0.18276,-0.058 -0.36857,-0.2315 0.13707,-0.2589 0.39598,-0.7188 0.42339,-1.0478 0.067,-0.1675 0.42948,-1.0265 0.43253,-1.5352 0,-0.04 0,-0.079 -0.003,-0.1187 0.26195,-0.4052 1.41637,-2.3302 1.64481,-3.8501 0.0518,-0.3199 0.067,-0.6884 0.067,-1.0478 0,-0.60618 -0.0457,-1.17577 -0.0609,-1.32502 l 1.38286,-3.9841 0,-5.12937 c 0.16448,-0.64879 0.39597,-0.9412 0.66097,-1.21229 0.24368,-0.27109 0.55132,-0.51172 0.7158,-0.99602 l 0.0122,-0.0275 0,-1.5778 c 0.61833,-0.64269 0.862,-1.59303 1.06912,-2.44589 0.20408,-0.87419 0.39293,-1.65395 0.70057,-1.84889 l 0.0731,-0.0518 0.14011,-4.54456 -0.006,-0.0183 c -0.0304,-0.13707 -0.0365,-0.27109 -0.0365,-0.38989 -0.009,-0.84677 0.5635,-1.48946 0.79804,-2.59514 0.23454,-1.11786 0.48735,-2.87232 0.48735,-2.87537 0.0365,-0.48431 0.16449,-0.58483 0.3381,-0.7158 0.17362,-0.12184 0.45994,-0.24976 0.58178,-0.63051 0.0609,-0.23149 0.0883,-0.49649 0.0883,-0.74016 0,-0.36552 -0.0457,-0.71275 -0.0731,-0.8681 0.89855,-0.85895 1.13918,-1.00821 1.36763,-1.88544 0.0579,-0.23454 0.0761,-0.49344 0.0761,-0.74321 0,-0.36551 -0.0396,-0.70971 -0.0579,-0.87114 1.33413,-1.34936 1.49861,-2.97589 1.91286,-3.44192 l 0.0365,-0.0457 0,-0.6031 -0.16144,-0.0182 c -0.0365,-0.003 -0.0701,-0.003 -0.10052,-0.003 -0.13402,0 -0.21931,0.0213 -0.26195,0.0152 l -0.0152,0 c -0.003,0 0.006,0.006 -0.0335,-0.0274 -0.0426,-0.0487 -0.13097,-0.17667 -0.25585,-0.39293 l -0.0548,-0.0853 -0.0975,0 c -8.47078,0 -12.39396,-0.0183 -14.17888,-0.0183 -0.89246,0 -1.26711,0.006 -1.41332,0.0183 l -0.16144,0.006 0,8.57434 c -0.27109,0.265 -0.67315,0.6427 -0.69752,1.07827 0.0122,0.54218 0.24977,0.79499 0.24368,1.28539 0,0.24672 -0.0609,0.5635 -0.22845,1.01734 l -0.0518,0.13707 0.11574,0.0761 c 0.0883,0.0579 0.35028,0.30155 0.56045,0.48736 l 0.15535,0.1401 0.1127,-0.18276 c 0.25585,-0.39596 0.39902,-0.40206 0.597,-0.4112 0.0792,0 0.16143,0.009 0.24977,0.009 0.25891,0.0152 0.59091,-0.10965 0.81022,-0.55132 0.2254,-0.4447 0.44166,-1.20314 0.67316,-2.60428 0.2193,-1.32499 0.52085,-2.34233 0.81935,-3.01244 0.2985,-0.69143 0.65183,-0.98384 0.73712,-0.95643 0.31678,-0.0152 0.96557,-0.29546 1.57476,-0.29546 0.28632,0 0.54522,0.0701 0.7158,0.24368 0.15534,0.1523 0.20407,0.25586 0.32286,0.46603 l 0.0487,0.0883 2.44894,0 c 0.0975,0.11575 0.17971,0.1858 0.20712,0.22236 0.0396,0.0426 0.0274,0.009 0.0426,0.10661 l 0,0.0152 c 0.0274,0.13402 -0.29545,0.40206 -0.38684,0.45385 l -0.0792,0.0518 0,1.63872 c -0.66097,0.64879 -1.43464,2.02555 -2.07124,3.31703 -0.32287,0.65793 -0.61224,1.28844 -0.81631,1.77883 -0.10053,0.24673 -0.18581,0.4569 -0.24064,0.61528 -0.0548,0.16449 -0.0944,0.24673 -0.0975,0.35334 0,0.0182 0.0213,0.38074 0.0213,0.7828 0,0.20408 -0.003,0.40511 -0.0213,0.57264 -0.0761,0.63965 -0.38683,1.33108 -0.70361,1.91286 -0.31983,0.597 -0.62442,1.02343 -0.67925,1.32193 -0.009,0.10052 -0.009,0.17058 -0.009,0.24673 0,0.14011 0.009,0.28632 0.009,0.52695 0,0.35637 -0.16448,0.70056 -0.31677,0.95946 -0.16143,0.25587 -0.32592,0.41121 -0.32592,0.41426 l -0.0548,0.0518 0,0.0761 c 0,0.16752 -0.0274,0.25585 -0.0335,0.42338 0,0.0761 0.009,0.16753 0.0426,0.265 0.0792,0.19494 0.24063,0.3046 0.33201,0.37465 0.0822,0.0761 0.11574,0.10357 0.12183,0.15839 l -2.76572,7.33768 0,0.0152 c 0,0.006 -0.44774,2.18699 -0.44774,4.49581 0,1.15746 0.11269,2.35452 0.45688,3.33227 0.0853,0.25281 0.21322,0.4173 0.30155,0.5635 0.0853,0.14925 0.1462,0.26805 0.1523,0.50259 l 0,0.0122 0,0.0182 c 0,0 0.15534,0.92292 0.15534,1.90674 0,0.4843 -0.0335,0.99 -0.15534,1.3829 -0.064,0.2071 -0.17666,0.4538 -0.27109,0.661 -0.0975,0.2254 -0.17971,0.3441 -0.1919,0.5086 l 0,0.027 0.009,0.027 c 0,0 0.1523,0.4447 0.14316,0.8498 0.009,0.2011 -0.0365,0.3808 -0.11879,0.4874 -0.11575,0.1553 -0.21322,0.198 -0.42339,0.335 l -0.0975,0.067 0.0304,0.1219 c 0,0 0.11575,0.4538 0.11575,0.9077 0,0.2193 -0.0244,0.4416 -0.1066,0.5939 -0.1919,0.393 -0.44167,0.5087 -0.86201,0.8011 l -0.1127,0.079 0.0457,0.1249 c 0,0 0.16448,0.4843 0.16448,0.926 0,0.2193 -0.0457,0.4173 -0.13707,0.53 -0.12184,0.1553 -0.22844,0.204 -0.42338,0.3381 l -0.0792,0.052 0,1.8458 c 0.0122,0.1493 -0.064,0.4417 -0.064,0.7737 -0.006,0.3655 0.0914,0.8011 0.4569,1.197 l 0.0579,0.058 0.0761,0 c 0.95947,-0.01 2.18699,-0.7493 2.66825,-0.8559 1.03257,0 2.01032,-0.082 3.75565,-0.082 l 0.0244,0 0.0274,-0.01 c 0.59092,-0.2101 1.30976,-0.667 1.75447,-1.1605 l 2.28141,0.2437 c 0.12184,0.1432 0.20407,0.2559 0.29545,0.4234 l 0.0487,0.088 6.9478,0 0.0213,-0.1523 c 0.0122,-0.076 0.0213,-0.1493 0.0213,-0.201 0,-0.07 -0.009,-0.1158 -0.009,-0.1432 l 0,-0 c 0.0457,-0.037 0.15534,-0.1249 0.38074,-0.2833 l 0.0762,-0.058 0,-4.3313 c -0.0457,-0.5148 -0.46908,-0.6762 -0.46603,-1.4956 0,-0.5117 0.10661,-0.7523 0.20712,-0.9016 0.0853,-0.1584 0.23454,-0.2162 0.25891,-0.469" />
  </g>
</svg>
