<?xml version="1.0" encoding="UTF-8" standalone="no"?>
<svg
   xmlns:dc="http://purl.org/dc/elements/1.1/"
   xmlns:cc="http://creativecommons.org/ns#"
   xmlns:rdf="http://www.w3.org/1999/02/22-rdf-syntax-ns#"
   xmlns:svg="http://www.w3.org/2000/svg"
   xmlns="http://www.w3.org/2000/svg"
   xmlns:sodipodi="http://sodipodi.sourceforge.net/DTD/sodipodi-0.dtd"
   xmlns:inkscape="http://www.inkscape.org/namespaces/inkscape"
   viewBox="0 0 128 128"
   id="svg2"
   version="1.1"
   inkscape:version="0.91 r13725"
   sodipodi:docname="discord.svg"
   width="128"
   height="128">
  <metadata
     id="metadata12">
    <rdf:RDF>
      <cc:Work
         rdf:about="">
        <dc:format>image/svg+xml</dc:format>
        <dc:type
           rdf:resource="http://purl.org/dc/dcmitype/StillImage" />
        <dc:title />
      </cc:Work>
    </rdf:RDF>
  </metadata>
  <defs
     id="defs10" />
  <sodipodi:namedview
     pagecolor="#ffffff"
     bordercolor="#666666"
     borderopacity="1"
     objecttolerance="10"
     gridtolerance="10"
     guidetolerance="10"
     inkscape:pageopacity="0"
     inkscape:pageshadow="2"
     inkscape:window-width="1920"
     inkscape:window-height="1137"
     id="namedview8"
     showgrid="false"
     inkscape:zoom="0.98333333"
     inkscape:cx="-320.85058"
     inkscape:cy="162.49842"
     inkscape:window-x="-8"
     inkscape:window-y="-8"
     inkscape:window-maximized="1"
     inkscape:current-layer="svg2" />
  <g
     id="g4140"
     transform="matrix(0.64,0,0,0.64,-14.4,58.88)">
    <path
       inkscape:connector-curvature="0"
       style="fill:#705c5c;fill-opacity:1"
       id="path4"
       d="m 104.4,-8.1 c -5.7,0 -10.2,5 -10.2,11.1 0,6.1 4.6,11.1 10.2,11.1 5.7,0 10.2,-5 10.2,-11.1 0.1,-6.1 -4.5,-11.1 -10.2,-11.1 z m 36.5,0 c -5.7,0 -10.2,5 -10.2,11.1 0,6.1 4.6,11.1 10.2,11.1 5.7,0 10.2,-5 10.2,-11.1 0,-6.1 -4.5,-11.1 -10.2,-11.1 z" />
    <path
       inkscape:connector-curvature="0"
       style="fill:#705c5c;fill-opacity:1"
       id="path6"
       d="m 189.5,-92 -134,0 C 44.2,-92 35,-82.8 35,-71.4 l 0,135.2 c 0,11.4 9.2,20.6 20.5,20.6 l 113.4,0 -5.3,-18.5 12.8,11.9 12.1,11.2 21.5,19 0,-179.4 C 210,-82.8 200.8,-92 189.5,-92 Z M 150.9,38.6 c 0,0 -3.6,-4.3 -6.6,-8.1 13.1,-3.7 18.1,-11.9 18.1,-11.9 -4.1,2.7 -8,4.6 -11.5,5.9 -5,2.1 -9.8,3.5 -14.5,4.3 -9.6,1.8 -18.4,1.3 -25.9,-0.1 C 104.8,27.6 99.9,26 95.8,24.4 93.5,23.5 91,22.4 88.5,21 c -0.3,-0.2 -0.6,-0.3 -0.9,-0.5 -0.2,-0.1 -0.3,-0.2 -0.4,-0.3 -1.8,-1 -2.8,-1.7 -2.8,-1.7 0,0 4.8,8 17.5,11.8 -3,3.8 -6.7,8.3 -6.7,8.3 C 73.1,37.9 64.7,23.4 64.7,23.4 c 0,-32.2 14.4,-58.3 14.4,-58.3 14.4,-10.8 28.1,-10.5 28.1,-10.5 l 1,1.2 c -18,5.2 -26.3,13.1 -26.3,13.1 0,0 2.2,-1.2 5.9,-2.9 10.7,-4.7 19.2,-6 22.7,-6.3 0.6,-0.1 1.1,-0.2 1.7,-0.2 6.1,-0.8 13,-1 20.2,-0.2 9.5,1.1 19.7,3.9 30.1,9.6 0,0 -7.9,-7.5 -24.9,-12.7 l 1.4,-1.6 c 0,0 13.7,-0.3 28.1,10.5 0,0 14.4,26.1 14.4,58.3 0,0 -8.5,14.5 -30.6,15.2 z" />
  </g>
</svg>
