<?xml version="1.0" encoding="UTF-8" standalone="no"?>
<svg
   xmlns:dc="http://purl.org/dc/elements/1.1/"
   xmlns:cc="http://creativecommons.org/ns#"
   xmlns:rdf="http://www.w3.org/1999/02/22-rdf-syntax-ns#"
   xmlns:svg="http://www.w3.org/2000/svg"
   xmlns="http://www.w3.org/2000/svg"
   xmlns:sodipodi="http://sodipodi.sourceforge.net/DTD/sodipodi-0.dtd"
   xmlns:inkscape="http://www.inkscape.org/namespaces/inkscape"
   version="1.1"
   x="0px"
   y="0px"
   viewBox="0 0 128 128"
   enable-background="new 0 0 90 84"
   xml:space="preserve"
   id="svg2"
   inkscape:version="0.91 r13725"
   sodipodi:docname="nintendo-3ds.svg"
   width="128"
   height="128"><metadata
     id="metadata9"><rdf:RDF><cc:Work
         rdf:about=""><dc:format>image/svg+xml</dc:format><dc:type
           rdf:resource="http://purl.org/dc/dcmitype/StillImage" /><dc:title></dc:title></cc:Work></rdf:RDF></metadata><defs
     id="defs7" /><sodipodi:namedview
     pagecolor="#ffffff"
     bordercolor="#666666"
     borderopacity="1"
     objecttolerance="10"
     gridtolerance="10"
     guidetolerance="10"
     inkscape:pageopacity="0"
     inkscape:pageshadow="2"
     inkscape:window-width="1920"
     inkscape:window-height="1137"
     id="namedview5"
     showgrid="false"
     inkscape:zoom="2.8095238"
     inkscape:cx="67.526836"
     inkscape:cy="75.656086"
     inkscape:window-x="1912"
     inkscape:window-y="-8"
     inkscape:window-maximized="1"
     inkscape:current-layer="svg2" /><path
     id="img-hardware-3ds-gray.svg"
     d="m 113.20887,123.73212 -98.417743,0 C 6.8266855,123.87434 0.1422435,117.61657 2.15e-5,109.65212 l 0,-90.595515 C 0.1422435,10.949942 6.6844635,4.4077216 14.791127,4.2654996 l 98.417743,0 c 8.10666,0.142222 14.64888,6.6844424 14.79111,14.7911054 l 0,90.453295 c -0.14223,8.10667 -6.82667,14.36444 -14.79111,14.22222 z m 9.95555,-105.386626 c 0,-4.977775 -4.69333,-9.3866634 -9.95555,-9.3866634 l -98.844409,0 c -5.1199981,0 -9.3866635,4.1244434 -9.5288855,9.3866634 l 0,44.373318 118.3288445,0 0,-44.373318 0,0 z m 0,49.208871 -118.3288445,0 0,42.239985 c 0.142222,5.11999 4.4088874,9.24444 9.5288855,9.10221 l 99.271079,0 c 5.11999,0.14223 9.38666,-3.98222 9.52888,-9.10221 l 0,-42.239985 0,0 z m -10.52444,21.048879 c -1.99111,0 -3.55555,-1.56444 -3.41333,-3.55555 0,-1.99111 1.56444,-3.55556 3.55555,-3.41333 1.99111,0 3.41334,1.56444 3.41334,3.55555 0,1.84889 -1.56445,3.41333 -3.55556,3.41333 l 0,0 0,0 z m -7.11111,7.11111 c -1.99111,0 -3.55555,-1.56444 -3.41333,-3.55555 0.14222,-1.99111 1.56444,-3.55556 3.55555,-3.41333 1.99111,0 3.55556,1.56444 3.41334,3.55555 -0.14223,1.84889 -1.70667,3.41333 -3.55556,3.41333 l 0,0 z m 0,-14.22222 c -1.99111,0 -3.41333,-1.56444 -3.41333,-3.55555 0,-1.99111 1.56444,-3.413332 3.55555,-3.413332 1.84889,0 3.41334,1.564444 3.41334,3.413332 -0.14223,1.99111 -1.70667,3.55555 -3.55556,3.55555 l 0,0 0,0 z m -7.253328,7.11111 c -1.991111,0 -3.413332,-1.56444 -3.413332,-3.55555 0,-1.99111 1.564443,-3.41333 3.555554,-3.41333 1.848886,0 3.413336,1.56444 3.413336,3.55555 0,1.84889 -1.56445,3.41333 -3.555558,3.41333 l 0,0 z m -13.226663,18.773326 -42.097762,0 c -1.422222,0.14222 -2.559999,-0.99556 -2.702221,-2.41778 l 0,-25.742206 c 0.142222,-1.422222 1.279999,-2.417777 2.702221,-2.275555 l 41.95554,0 c 1.422222,-0.142222 2.559999,0.995555 2.702221,2.275555 l 0,25.742206 c 0,1.42222 -1.279999,2.56 -2.559999,2.41778 l 0,0 z M 24.888902,93.296574 c -4.55111,0 -8.106664,-3.83999 -8.106664,-8.24888 0,-4.55111 3.839998,-8.106665 8.248886,-8.106665 4.408887,0 8.106663,3.697775 8.106663,8.106665 0,4.55111 -3.697776,8.24888 -8.248885,8.24888 l 0,0 0,0 z m 8.533329,-72.675525 61.155534,0 c 1.422221,0 2.56,1.137778 2.702221,2.559999 l 0,25.457769 c 0,1.422221 -1.28,2.559999 -2.702221,2.559999 l -61.155534,0 c -1.422221,0 -2.559999,-1.137778 -2.702221,-2.559999 l 0,-25.457769 c 0.142222,-1.422221 1.28,-2.559999 2.702221,-2.559999 l 0,0 0,0 z"
     style="fill:#705c5c;fill-opacity:1"
     inkscape:connector-curvature="0" /></svg>