<?xml version="1.0" encoding="UTF-8" standalone="no"?>
<!-- Generator: Adobe Illustrator 19.2.1, SVG Export Plug-In . SVG Version: 6.00 Build 0)  -->

<svg
   xmlns:dc="http://purl.org/dc/elements/1.1/"
   xmlns:cc="http://creativecommons.org/ns#"
   xmlns:rdf="http://www.w3.org/1999/02/22-rdf-syntax-ns#"
   xmlns:svg="http://www.w3.org/2000/svg"
   xmlns="http://www.w3.org/2000/svg"
   xmlns:sodipodi="http://sodipodi.sourceforge.net/DTD/sodipodi-0.dtd"
   xmlns:inkscape="http://www.inkscape.org/namespaces/inkscape"
   version="1.1"
   id="svg2985"
   inkscape:version="0.91 r13725"
   sodipodi:docname="xbox-live.svg"
   x="0px"
   y="0px"
   viewBox="0 0 128 128"
   xml:space="preserve"
   width="128"
   height="128"><metadata
     id="metadata15"><rdf:RDF><cc:Work
         rdf:about=""><dc:format>image/svg+xml</dc:format><dc:type
           rdf:resource="http://purl.org/dc/dcmitype/StillImage" /><dc:title>XBOX</dc:title></cc:Work></rdf:RDF></metadata><defs
     id="defs13" /><style
     type="text/css"
     id="style3">
	.st0{fill:#107C10;}
</style><title
     id="title3507">XBOX</title><sodipodi:namedview
     bordercolor="#666666"
     borderopacity="1"
     fit-margin-bottom="0"
     fit-margin-left="0"
     fit-margin-right="0"
     fit-margin-top="0"
     gridtolerance="10"
     guidetolerance="10"
     id="namedview2987"
     inkscape:current-layer="svg2985"
     inkscape:cx="235.78692"
     inkscape:cy="31.160345"
     inkscape:pageopacity="0"
     inkscape:pageshadow="2"
     inkscape:window-height="1137"
     inkscape:window-maximized="1"
     inkscape:window-width="1920"
     inkscape:window-x="1912"
     inkscape:window-y="-8"
     inkscape:zoom="1.0729537"
     objecttolerance="10"
     pagecolor="#ffffff"
     showgrid="false" /><g
     id="g4146"
     transform="matrix(0.14213355,0,0,0.14213355,-0.50701584,1.945755)"
     style="fill:#705c5c;fill-opacity:1"><path
       id="path4148"
       inkscape:connector-curvature="0"
       class="st0"
       d="M 409.1,885 C 339.9,878.4 269.8,853.5 209.5,814.1 159,781.1 147.6,767.6 147.6,740.5 147.6,686.2 207.3,591 309.3,482.6 367.3,421 448,348.8 456.7,350.7 c 17,3.8 152.7,136.4 203.5,198.7 C 740.6,648.2 777.6,729 758.8,765 744.5,792.4 656,845.9 591,866.4 537.4,883.4 467,890.6 409.1,885 Z M 79.5,684.1 C 37.6,619.7 16.4,556.2 6.1,464.5 2.7,434.2 3.9,416.9 13.8,354.7 26.1,277.2 70.1,187.6 123.1,132.4 c 22.6,-23.5 24.6,-24.1 52.1,-14.8 33.4,11.3 69,35.9 124.3,86 l 32.3,29.2 -17.6,21.7 C 232.3,355.1 146,497.7 113.5,585.9 95.8,633.8 88.7,682 96.3,702 c 5.1,13.5 0.4,8.5 -16.8,-17.9 z m 736,10.9 c 4.1,-20.2 -1.1,-57.4 -13.4,-94.9 C 775.6,518.9 686.7,367.7 605.1,265 l -25.7,-32.3 27.8,-25.6 c 36.3,-33.4 61.5,-53.4 88.7,-70.3 21.5,-13.4 52.1,-25.2 65.3,-25.2 8.1,0 36.7,29.7 59.8,62.2 35.8,50.2 62.1,111.2 75.4,174.6 8.6,41 9.3,128.7 1.4,169.5 -6.5,33.5 -20.3,77 -33.7,106.6 -10.1,22.1 -35.1,65 -46.1,79 -5.6,7 -5.6,7 -2.5,-8.5 l 0,0 z M 416.5,96.2 C 378.8,77 320.7,56.5 288.6,50.9 c -11.3,-1.9 -30.4,-3 -42.7,-2.4 -26.5,1.3 -25.3,0 17.2,-20.1 35.3,-16.7 64.8,-26.5 104.8,-34.9 45,-9.5 129.5,-9.6 173.8,-0.2 47.8,10.1 104.1,31.1 135.8,50.6 l 9.4,5.8 -21.6,-1.1 c -43,-2.2 -105.6,15.2 -172.9,48 -20.3,9.9 -37.9,17.8 -39.2,17.5 -1.2,-0.2 -17.8,-8.3 -36.7,-17.9 z"
       style="fill:#705c5c;fill-opacity:1" /></g></svg>