<?xml version="1.0" encoding="UTF-8" standalone="no"?>
<svg
   xmlns:dc="http://purl.org/dc/elements/1.1/"
   xmlns:cc="http://creativecommons.org/ns#"
   xmlns:rdf="http://www.w3.org/1999/02/22-rdf-syntax-ns#"
   xmlns:svg="http://www.w3.org/2000/svg"
   xmlns="http://www.w3.org/2000/svg"
   xmlns:xlink="http://www.w3.org/1999/xlink"
   xmlns:sodipodi="http://sodipodi.sourceforge.net/DTD/sodipodi-0.dtd"
   xmlns:inkscape="http://www.inkscape.org/namespaces/inkscape"
   viewBox="0 0 128 128"
   id="svg2"
   version="1.1"
   inkscape:version="0.91 r13725"
   sodipodi:docname="ingress.svg"
   width="128"
   height="128">
  <metadata
     id="metadata21">
    <rdf:RDF>
      <cc:Work
         rdf:about="">
        <dc:format>image/svg+xml</dc:format>
        <dc:type
           rdf:resource="http://purl.org/dc/dcmitype/StillImage" />
        <dc:title></dc:title>
      </cc:Work>
    </rdf:RDF>
  </metadata>
  <defs
     id="defs19" />
  <sodipodi:namedview
     pagecolor="#ffffff"
     bordercolor="#666666"
     borderopacity="1"
     objecttolerance="10"
     gridtolerance="10"
     guidetolerance="10"
     inkscape:pageopacity="0"
     inkscape:pageshadow="2"
     inkscape:window-width="1920"
     inkscape:window-height="1137"
     id="namedview17"
     showgrid="false"
     inkscape:zoom="5.1584699"
     inkscape:cx="63.360788"
     inkscape:cy="52.023086"
     inkscape:window-x="1912"
     inkscape:window-y="-8"
     inkscape:window-maximized="1"
     inkscape:current-layer="svg2" />
  <g
     id="g4149"
     transform="matrix(1.3989125,0,0,1.3989125,8.0435,-2.46875e-4)">
    <path
       style="fill:#705c5c;fill-opacity:1"
       id="path4"
       d="M 40,0 80,23 80,68.5 40,91.5 0,68.5 0,23 Z"
       inkscape:connector-curvature="0" />
    <path
       style="fill:#705c5c;fill-opacity:1"
       id="path6"
       d="M 40,4 76,24.8 76,66.4 47.63,82.792 45.045,42.088 14.089,18.971 40,4 Z"
       inkscape:connector-curvature="0" />
    <g
       id="g8"
       style="fill:none;stroke:#ffffff;stroke-width:4">
      <path
         id="path10"
         d="M 40,11 70,28.3 70,62.9 40,80.2 10,62.9 10,28.3 Z m 0,56.6 20,-33.8 -40,0 z"
         inkscape:connector-curvature="0" />
      <path
         d="m 40,11 0,15.5 m 0,17.5 0,20"
         id="i"
         inkscape:connector-curvature="0" />
      <use
         id="use13"
         transform="matrix(-0.5,0.8660254,-0.8660254,-0.5,98.971143,32.858984)"
         xlink:href="#i"
         x="0"
         y="0"
         width="100%"
         height="100%" />
      <use
         id="use15"
         transform="matrix(-0.5,-0.8660254,0.8660254,-0.5,21.028857,102.14102)"
         xlink:href="#i"
         x="0"
         y="0"
         width="100%"
         height="100%" />
    </g>
  </g>
</svg>
